<svg width="587" height="235" viewBox="0 0 587 235" fill="none" xmlns="http://www.w3.org/2000/svg">
<g filter="url(#filter0_f_438_2545)">
<ellipse cx="293.5" cy="117.5" rx="223.5" ry="47.5" fill="#FFECAA"/>
</g>
<path d="M70.7847 162.235L87.4751 159.872L85.4557 145.607L89.022 145.102L100.457 158.034L119.501 155.338L105.471 140.008C108.761 137.805 111.178 135.01 112.417 131.609C113.305 129.17 113.588 126.419 113.154 123.351L113.133 123.209C112.407 118.073 110.394 114.647 106.892 112.015C102.903 109.014 97.0263 107.591 88.1105 108.853L63.7168 112.306L70.7847 162.235ZM83.7695 133.695L82.3862 123.923L89.6615 122.893C93.5845 122.338 96.2317 123.564 96.6861 126.774L96.7063 126.916C96.8233 127.743 96.7508 128.502 96.5041 129.18C95.836 131.017 93.8905 132.262 90.9735 132.675L83.7695 133.695Z" fill="#A55000"/>
<path d="M123.87 154.727L140.294 153.18L137.95 128.293L151.179 145.064L151.466 145.037L161.331 126.092L163.675 150.979L180.385 149.405L175.658 99.2008L158.158 100.849L149.062 119.505L136.642 102.875L119.142 104.523L123.87 154.727Z" fill="#A55000"/>
<path d="M222.412 147.068L238.744 146.264L238.316 137.558L244.36 137.261L243.775 125.389L237.732 125.686L236.248 95.5389L217.541 96.4596L194.421 127.89L197.736 139.555L221.983 138.362L222.412 147.068ZM210.689 127.234L220.751 113.323L221.41 126.706L210.689 127.234Z" fill="#A55000"/>
<path d="M269.984 146.818C281.142 146.659 288.899 139.932 292.19 130.897C293.403 127.567 294.009 123.924 293.956 120.181L293.954 120.037C293.756 106.135 284.65 94.0166 269.38 94.2338C258.221 94.3926 250.464 101.12 247.173 110.155C245.96 113.485 245.354 117.128 245.407 120.871L245.409 121.015C245.607 134.917 254.713 147.035 269.984 146.818ZM276.304 126.956C275.125 130.197 272.896 132.151 269.92 132.194C265.31 132.259 262.217 127.548 262.118 120.634L262.116 120.489C262.081 118.04 262.412 115.874 263.059 114.096C264.238 110.855 266.467 108.9 269.444 108.858C274.053 108.792 277.146 113.503 277.245 120.418L277.247 120.562C277.282 123.012 276.951 125.178 276.304 126.956Z" fill="#A55000"/>
<path d="M318.024 147.143C329.56 147.382 337.707 140.478 341.125 131.093C342.231 128.055 342.842 124.758 342.913 121.36L342.916 121.216C343.204 107.316 334.527 94.8867 319.258 94.5701C307.723 94.331 299.576 101.236 296.158 110.621C295.051 113.658 294.44 116.955 294.37 120.354L294.367 120.498C294.079 134.398 302.756 146.827 318.024 147.143ZM325.197 127.093C323.94 130.547 321.576 132.59 318.471 132.526C313.862 132.43 310.936 127.614 311.079 120.7L311.082 120.556C311.129 118.299 311.477 116.294 312.086 114.621C313.342 111.167 315.706 109.123 318.811 109.188C323.421 109.283 326.347 114.099 326.204 121.014L326.201 121.158C326.154 123.414 325.805 125.419 325.197 127.093Z" fill="#A55000"/>
<path d="M341.715 158.946C349.121 159.007 355.049 156.973 357.482 150.292C358.127 148.519 358.527 146.419 358.643 143.944L359.259 130.775L342.564 129.994L341.79 146.545L348.338 146.851C348.306 147.534 348.185 148.16 347.978 148.729C347.072 151.22 344.528 152.622 340.699 152.912L341.715 158.946Z" fill="#A55000"/>
<path d="M389.433 150.735C401.511 151.616 410.27 144.443 413.883 134.521C414.827 131.93 415.419 129.152 415.629 126.281L415.639 126.137C416.65 112.271 408.631 99.4075 393.399 98.2975C381.322 97.4172 372.563 104.59 368.949 114.512C368.006 117.102 367.413 119.881 367.204 122.752L367.193 122.895C366.183 136.762 374.202 149.625 389.433 150.735ZM397.904 130.41C396.521 134.212 393.938 136.401 390.64 136.161C386.042 135.826 383.37 130.864 383.872 123.967L383.883 123.823C384.025 121.872 384.384 120.122 384.929 118.623C386.312 114.821 388.895 112.632 392.193 112.872C396.791 113.207 399.463 118.169 398.96 125.066L398.95 125.21C398.808 127.161 398.449 128.911 397.904 130.41Z" fill="#A55000"/>
<path d="M437.264 155.233C449.69 156.576 458.882 149.223 462.631 138.931C463.463 136.648 464.026 134.219 464.298 131.709L464.313 131.565C465.808 117.743 458.243 104.607 443.06 102.965C430.634 101.622 421.441 108.975 417.693 119.266C416.861 121.55 416.297 123.979 416.026 126.489L416.01 126.633C414.516 140.455 422.08 153.591 437.264 155.233ZM446.628 134.722C445.152 138.782 442.408 141.08 438.979 140.709C434.395 140.214 431.898 135.161 432.642 128.286L432.657 128.143C432.845 126.41 433.198 124.843 433.695 123.476C435.172 119.416 437.916 117.118 441.345 117.489C445.928 117.984 448.425 123.037 447.682 129.912L447.666 130.055C447.479 131.788 447.126 133.355 446.628 134.722Z" fill="#A55000"/>
<path d="M484.908 161.398C497.669 163.231 507.315 155.698 511.201 145.028C511.919 143.057 512.44 140.979 512.748 138.834L512.769 138.691C514.745 124.929 507.645 111.537 492.528 109.366C479.768 107.533 470.122 115.066 466.235 125.737C465.517 127.707 464.996 129.785 464.688 131.931L464.668 132.073C462.691 145.835 469.792 159.227 484.908 161.398ZM495.186 140.701C493.608 145.039 490.691 147.455 487.13 146.944C482.567 146.288 480.248 141.152 481.231 134.307L481.251 134.164C481.468 132.659 481.806 131.285 482.25 130.063C483.828 125.725 486.746 123.309 490.306 123.82C494.87 124.476 497.188 129.612 496.205 136.457L496.185 136.6C495.969 138.105 495.631 139.479 495.186 140.701Z" fill="#A55000"/>
<path d="M496.378 98.7891C511.495 100.96 518.596 114.352 516.619 128.114L512.769 138.691C514.746 124.929 507.645 111.537 492.528 109.366L496.378 98.7891Z" fill="#A55000"/>
<path d="M470.085 115.16C473.971 104.489 483.617 96.956 496.378 98.7888L492.528 109.366C479.768 107.533 470.122 115.066 466.235 125.737L470.085 115.16Z" fill="#A55000"/>
<path d="M494.157 113.243C490.596 112.732 487.678 115.148 486.101 119.485L482.254 130.055C483.832 125.722 486.749 123.309 490.307 123.82L494.157 113.243Z" fill="#A55000"/>
<path d="M500.056 125.881C501.039 119.035 498.72 113.899 494.156 113.244L490.307 123.821C494.87 124.476 497.189 129.613 496.206 136.458L500.056 125.881Z" fill="#A55000"/>
<path d="M516.618 128.114L516.598 128.257L512.748 138.834L512.769 138.691L516.618 128.114Z" fill="#A55000"/>
<path d="M446.91 92.3882C462.094 94.0299 469.658 107.166 468.164 120.988L464.314 131.565C465.809 117.743 458.244 104.607 443.061 102.965L446.91 92.3882Z" fill="#A55000"/>
<path d="M421.543 108.69C425.291 98.3979 434.484 91.0449 446.91 92.3884L443.06 102.965C430.635 101.622 421.442 108.975 417.693 119.267L421.543 108.69Z" fill="#A55000"/>
<path d="M516.598 128.256C516.29 130.402 515.769 132.48 515.051 134.45L511.206 145.015C511.921 143.048 512.441 140.974 512.748 138.833L516.598 128.256Z" fill="#A55000"/>
<path d="M500.035 126.023L500.056 125.88L496.206 136.457L496.186 136.6L500.035 126.023Z" fill="#A55000"/>
<path d="M486.099 119.486C485.655 120.708 485.317 122.082 485.101 123.587L481.251 134.164C481.467 132.66 481.805 131.285 482.25 130.063L486.099 119.486Z" fill="#A55000"/>
<path d="M499.035 130.124C499.48 128.902 499.818 127.528 500.034 126.023L496.184 136.6C495.968 138.105 495.63 139.479 495.186 140.701L499.035 130.124Z" fill="#A55000"/>
<path d="M485.102 123.587L485.081 123.73L481.231 134.307L481.252 134.164L485.102 123.587Z" fill="#A55000"/>
<path d="M468.538 121.353C468.846 119.212 469.366 117.139 470.081 115.171L466.236 125.736C465.518 127.707 464.997 129.785 464.688 131.93L468.538 121.353Z" fill="#A55000"/>
<path d="M445.194 106.912C441.766 106.541 439.021 108.839 437.545 112.899L433.698 123.469C435.175 119.414 437.918 117.119 441.345 117.489L445.194 106.912Z" fill="#A55000"/>
<path d="M451.532 119.335C452.275 112.459 449.778 107.407 445.194 106.912L441.345 117.489C445.928 117.984 448.425 123.036 447.682 129.912L451.532 119.335Z" fill="#A55000"/>
<path d="M468.163 120.988L468.148 121.132L464.298 131.709L464.313 131.565L468.163 120.988Z" fill="#A55000"/>
<path d="M468.518 121.496L468.538 121.354L464.688 131.931L464.668 132.073L468.518 121.496Z" fill="#A55000"/>
<path d="M485.082 123.73C484.098 130.575 486.417 135.712 490.981 136.367L487.131 146.944C482.568 146.289 480.249 141.152 481.232 134.307L485.082 123.73Z" fill="#A55000"/>
<path d="M397.249 87.7202C412.481 88.8303 420.5 101.694 419.489 115.56L415.639 126.137C416.65 112.271 408.631 99.4074 393.399 98.2973L397.249 87.7202Z" fill="#A55000"/>
<path d="M490.981 136.367C494.539 136.878 497.455 134.465 499.034 130.132L495.187 140.702C493.609 145.039 490.691 147.455 487.131 146.944L490.981 136.367Z" fill="#A55000"/>
<path d="M468.148 121.131C467.876 123.642 467.312 126.07 466.481 128.354L462.635 138.919C463.465 136.639 464.027 134.214 464.298 131.708L468.148 121.131Z" fill="#A55000"/>
<path d="M451.517 119.479L451.532 119.335L447.682 129.913L447.667 130.056L451.517 119.479Z" fill="#A55000"/>
<path d="M372.8 103.935C376.413 94.0131 385.172 86.8403 397.25 87.7205L393.4 98.2976C381.323 97.4173 372.564 104.59 368.95 114.512L372.8 103.935Z" fill="#A55000"/>
<path d="M437.545 112.898C437.048 114.266 436.694 115.833 436.507 117.565L432.657 128.143C432.845 126.41 433.198 124.843 433.695 123.476L437.545 112.898Z" fill="#A55000"/>
<path d="M450.479 124.145C450.976 122.778 451.329 121.21 451.517 119.478L447.667 130.055C447.48 131.787 447.126 133.355 446.629 134.722L450.479 124.145Z" fill="#A55000"/>
<path d="M436.508 117.565L436.492 117.709L432.643 128.286L432.658 128.142L436.508 117.565Z" fill="#A55000"/>
<path d="M419.876 115.912C420.147 113.406 420.709 110.982 421.539 108.702L417.693 119.267C416.862 121.55 416.298 123.979 416.026 126.489L419.876 115.912Z" fill="#A55000"/>
<path d="M515.05 134.45C511.164 145.12 501.518 152.654 488.758 150.821L484.908 161.398C497.668 163.231 507.314 155.698 511.201 145.027L515.05 134.45Z" fill="#A55000"/>
<path d="M488.759 150.821C473.642 148.65 466.541 135.258 468.518 121.496L464.668 132.073C462.691 145.835 469.792 159.227 484.909 161.398L488.759 150.821Z" fill="#A55000"/>
<path d="M396.042 102.295C392.744 102.055 390.161 104.244 388.778 108.046L384.931 118.617C386.314 114.819 388.897 112.632 392.193 112.872L396.042 102.295Z" fill="#A55000"/>
<path d="M419.489 115.56L419.479 115.704L415.629 126.281L415.639 126.137L419.489 115.56Z" fill="#A55000"/>
<path d="M402.81 114.489C403.312 107.592 400.64 102.63 396.042 102.295L392.192 112.872C396.791 113.207 399.463 118.169 398.96 125.066L402.81 114.489Z" fill="#A55000"/>
<path d="M419.861 116.055L419.877 115.912L416.027 126.489L416.012 126.632L419.861 116.055Z" fill="#A55000"/>
<path d="M436.492 117.709C435.749 124.585 438.246 129.637 442.829 130.132L438.98 140.709C434.396 140.214 431.899 135.162 432.642 128.286L436.492 117.709Z" fill="#A55000"/>
<path d="M442.829 130.132C446.256 130.503 448.999 128.208 450.476 124.153L446.629 134.723C445.153 138.782 442.408 141.08 438.979 140.709L442.829 130.132Z" fill="#A55000"/>
<path d="M419.478 115.704C419.269 118.575 418.676 121.354 417.733 123.944L413.887 134.511C414.828 131.923 415.419 129.148 415.628 126.281L419.478 115.704Z" fill="#A55000"/>
<path d="M402.8 114.633L402.81 114.489L398.961 125.066L398.95 125.21L402.8 114.633Z" fill="#A55000"/>
<path d="M388.78 108.046C388.234 109.545 387.876 111.295 387.734 113.246L383.884 123.823C384.026 121.872 384.385 120.122 384.93 118.623L388.78 108.046Z" fill="#A55000"/>
<path d="M401.754 119.833C402.299 118.333 402.658 116.583 402.8 114.633L398.95 125.21C398.808 127.161 398.45 128.911 397.904 130.41L401.754 119.833Z" fill="#A55000"/>
<path d="M466.481 128.354C462.733 138.646 453.54 145.999 441.114 144.655L437.265 155.232C449.691 156.576 458.883 149.223 462.632 138.931L466.481 128.354Z" fill="#A55000"/>
<path d="M387.733 113.246L387.723 113.389L383.873 123.966L383.884 123.823L387.733 113.246Z" fill="#A55000"/>
<path d="M371.054 112.174C371.263 109.307 371.854 106.532 372.795 103.945L368.95 114.511C368.006 117.102 367.413 119.88 367.204 122.751L371.054 112.174Z" fill="#A55000"/>
<path d="M441.114 144.655C425.931 143.014 418.366 129.878 419.861 116.055L416.011 126.632C414.516 140.455 422.081 153.591 437.264 155.232L441.114 144.655Z" fill="#A55000"/>
<path d="M323.109 83.9932C338.377 84.3097 347.054 96.7386 346.766 110.639L342.916 121.216C343.204 107.316 334.527 94.8868 319.259 94.5702L323.109 83.9932Z" fill="#A55000"/>
<path d="M387.723 113.39C387.22 120.287 389.892 125.249 394.49 125.584L390.64 136.161C386.042 135.826 383.37 130.864 383.873 123.967L387.723 113.39Z" fill="#A55000"/>
<path d="M371.043 112.318L371.054 112.175L367.204 122.752L367.193 122.896L371.043 112.318Z" fill="#A55000"/>
<path d="M394.49 125.584C397.786 125.824 400.368 123.637 401.752 119.839L397.904 130.41C396.522 134.212 393.938 136.401 390.641 136.161L394.49 125.584Z" fill="#A55000"/>
<path d="M300.008 100.044C303.426 90.6586 311.573 83.7537 323.109 83.9928L319.259 94.5699C307.723 94.3308 299.577 101.236 296.158 110.621L300.008 100.044Z" fill="#A55000"/>
<path d="M417.733 123.944C414.12 133.866 405.361 141.039 393.283 140.158L389.434 150.736C401.511 151.616 410.27 144.443 413.884 134.521L417.733 123.944Z" fill="#A55000"/>
<path d="M346.766 110.639L346.763 110.783L342.913 121.36L342.916 121.216L346.766 110.639Z" fill="#A55000"/>
<path d="M322.662 98.6109C319.557 98.5465 317.193 100.59 315.937 104.044L312.089 114.615C313.346 111.165 315.709 109.124 318.812 109.188L322.662 98.6109Z" fill="#A55000"/>
<path d="M330.054 110.437C330.197 103.523 327.271 98.7064 322.661 98.6108L318.812 109.188C323.421 109.283 326.347 114.1 326.204 121.014L330.054 110.437Z" fill="#A55000"/>
<path d="M393.283 140.158C378.052 139.048 370.033 126.185 371.043 112.318L367.194 122.895C366.183 136.762 374.202 149.625 389.433 150.735L393.283 140.158Z" fill="#A55000"/>
<path d="M346.763 110.783C346.692 114.181 346.081 117.478 344.975 120.515L341.13 131.08C342.233 128.046 342.842 124.754 342.913 121.36L346.763 110.783Z" fill="#A55000"/>
<path d="M330.051 110.581L330.054 110.437L326.204 121.014L326.201 121.158L330.051 110.581Z" fill="#A55000"/>
<path d="M346.414 119.417L363.109 120.198L359.259 130.775L342.564 129.995L346.414 119.417Z" fill="#A55000"/>
<path d="M315.936 104.043C315.327 105.717 314.979 107.722 314.932 109.979L311.082 120.556C311.129 118.299 311.477 116.294 312.086 114.621L315.936 104.043Z" fill="#A55000"/>
<path d="M273.23 83.6567C288.5 83.4394 297.606 95.5575 297.804 109.459L293.954 120.036C293.756 106.135 284.65 94.0165 269.38 94.2337L273.23 83.6567Z" fill="#A55000"/>
<path d="M329.046 116.516C329.655 114.842 330.003 112.837 330.05 110.581L326.2 121.158C326.154 123.414 325.805 125.419 325.196 127.093L329.046 116.516Z" fill="#A55000"/>
<path d="M363.108 120.198L362.492 133.367L358.643 143.944L359.259 130.775L363.108 120.198Z" fill="#A55000"/>
<path d="M314.932 109.979L314.929 110.123L311.079 120.7L311.082 120.556L314.932 109.979Z" fill="#A55000"/>
<path d="M298.22 109.776C298.29 106.382 298.9 103.09 300.003 100.056L296.158 110.621C295.052 113.658 294.441 116.955 294.37 120.353L298.22 109.776Z" fill="#A55000"/>
<path d="M251.024 99.5781C254.315 90.5426 262.071 83.8155 273.23 83.6567L269.38 94.2338C258.222 94.3925 250.465 101.12 247.174 110.155L251.024 99.5781Z" fill="#A55000"/>
<path d="M314.929 110.123C314.786 117.037 317.712 121.853 322.321 121.948L318.472 132.525C313.862 132.43 310.936 127.614 311.079 120.7L314.929 110.123Z" fill="#A55000"/>
<path d="M322.321 121.949C325.425 122.013 327.788 119.972 329.044 116.522L325.197 127.093C323.941 130.547 321.577 132.59 318.472 132.526L322.321 121.949Z" fill="#A55000"/>
<path d="M297.804 109.459L297.806 109.604L293.956 120.181L293.954 120.037L297.804 109.459Z" fill="#A55000"/>
<path d="M298.217 109.92L298.22 109.776L294.37 120.353L294.367 120.497L298.217 109.92Z" fill="#A55000"/>
<path d="M221.391 85.8826L240.098 84.9619L236.248 95.539L217.541 96.4597L221.391 85.8826Z" fill="#A55000"/>
<path d="M345.64 135.968L346.414 119.417L342.564 129.995L341.79 146.545L345.64 135.968Z" fill="#A55000"/>
<path d="M273.294 98.2812C270.317 98.3236 268.088 100.278 266.909 103.519L263.061 114.091C264.241 110.853 266.469 108.901 269.444 108.858L273.294 98.2812Z" fill="#A55000"/>
<path d="M281.095 109.841C280.997 102.926 277.904 98.2154 273.294 98.2809L269.444 108.858C274.054 108.792 277.147 113.503 277.246 120.418L281.095 109.841Z" fill="#A55000"/>
<path d="M362.492 133.367C362.376 135.842 361.977 137.942 361.331 139.715L357.484 150.286C358.128 148.514 358.527 146.416 358.643 143.944L362.492 133.367Z" fill="#A55000"/>
<path d="M297.806 109.604C297.859 113.347 297.253 116.99 296.04 120.32L292.195 130.884C293.405 127.558 294.009 123.919 293.956 120.181L297.806 109.604Z" fill="#A55000"/>
<path d="M344.975 120.515C341.556 129.9 333.41 136.805 321.874 136.566L318.024 147.143C329.56 147.382 337.707 140.477 341.125 131.092L344.975 120.515Z" fill="#A55000"/>
<path d="M281.097 109.985L281.095 109.841L277.245 120.418L277.247 120.562L281.097 109.985Z" fill="#A55000"/>
<path d="M351.828 138.151C352.035 137.582 352.157 136.956 352.189 136.274L348.339 146.851C348.307 147.533 348.185 148.159 347.979 148.728L351.828 138.151Z" fill="#A55000"/>
<path d="M352.188 136.274L345.64 135.968L341.79 146.545L348.338 146.851L352.188 136.274Z" fill="#A55000"/>
<path d="M266.909 103.519C266.263 105.297 265.932 107.462 265.966 109.912L262.117 120.489C262.082 118.039 262.413 115.874 263.06 114.096L266.909 103.519Z" fill="#A55000"/>
<path d="M321.874 136.566C306.606 136.25 297.929 123.821 298.217 109.92L294.367 120.497C294.079 134.398 302.756 146.827 318.025 147.143L321.874 136.566Z" fill="#A55000"/>
<path d="M280.153 116.379C280.8 114.601 281.131 112.435 281.096 109.985L277.247 120.562C277.281 123.012 276.951 125.178 276.304 126.956L280.153 116.379Z" fill="#A55000"/>
<path d="M240.098 84.9619L241.582 115.109L237.732 125.686L236.248 95.539L240.098 84.9619Z" fill="#A55000"/>
<path d="M265.966 109.912L265.968 110.056L262.118 120.633L262.116 120.489L265.966 109.912Z" fill="#A55000"/>
<path d="M344.549 142.335C348.377 142.045 350.92 140.643 351.827 138.154L347.978 148.728C347.072 151.22 344.529 152.622 340.699 152.912L344.549 142.335Z" fill="#A55000"/>
<path d="M249.257 110.294C249.204 106.555 249.809 102.917 251.019 99.5905L247.173 110.155C245.961 113.485 245.354 117.128 245.408 120.871L249.257 110.294Z" fill="#A55000"/>
<path d="M361.331 139.715C358.898 146.395 352.971 148.43 345.565 148.368L341.715 158.945C349.121 159.007 355.049 156.972 357.482 150.292L361.331 139.715Z" fill="#A55000"/>
<path d="M265.969 110.056C266.067 116.971 269.16 121.682 273.77 121.616L269.92 132.194C265.31 132.259 262.218 127.548 262.119 120.633L265.969 110.056Z" fill="#A55000"/>
<path d="M273.77 121.617C276.745 121.574 278.973 119.622 280.152 116.384L276.304 126.956C275.125 130.197 272.897 132.151 269.92 132.194L273.77 121.617Z" fill="#A55000"/>
<path d="M249.259 110.438L249.257 110.294L245.407 120.871L245.409 121.016L249.259 110.438Z" fill="#A55000"/>
<path d="M345.565 148.368L344.549 142.335L340.699 152.912L341.715 158.945L345.565 148.368Z" fill="#A55000"/>
<path d="M296.04 120.32C292.749 129.355 284.993 136.082 273.834 136.241L269.984 146.818C281.143 146.66 288.9 139.932 292.191 130.897L296.04 120.32Z" fill="#A55000"/>
<path d="M198.271 117.313L221.39 85.8823L217.541 96.4594L194.421 127.89L198.271 117.313Z" fill="#A55000"/>
<path d="M241.581 115.109L247.625 114.812L243.775 125.389L237.731 125.686L241.581 115.109Z" fill="#A55000"/>
<path d="M162.008 90.2719L179.508 88.624L175.658 99.2011L158.158 100.849L162.008 90.2719Z" fill="#A55000"/>
<path d="M225.259 116.129L224.601 102.746L220.751 113.323L221.41 126.706L225.259 116.129Z" fill="#A55000"/>
<path d="M273.834 136.241C258.564 136.458 249.458 124.34 249.26 110.438L245.41 121.016C245.608 134.917 254.714 147.035 269.984 146.818L273.834 136.241Z" fill="#A55000"/>
<path d="M224.601 102.746L214.539 116.657L210.689 127.234L220.751 113.323L224.601 102.746Z" fill="#A55000"/>
<path d="M247.625 114.812L248.209 126.683L244.36 137.26L243.775 125.389L247.625 114.812Z" fill="#A55000"/>
<path d="M214.539 116.657L225.26 116.129L221.41 126.706L210.689 127.234L214.539 116.657Z" fill="#A55000"/>
<path d="M248.21 126.684L242.166 126.981L238.316 137.558L244.36 137.261L248.21 126.684Z" fill="#A55000"/>
<path d="M152.912 108.928L162.009 90.2715L158.159 100.849L149.062 119.505L152.912 108.928Z" fill="#A55000"/>
<path d="M242.166 126.981L242.595 135.687L238.745 146.264L238.316 137.558L242.166 126.981Z" fill="#A55000"/>
<path d="M122.992 93.9452L140.492 92.2974L136.642 102.874L119.143 104.522L122.992 93.9452Z" fill="#A55000"/>
<path d="M140.492 92.2974L152.912 108.928L149.062 119.505L136.643 102.874L140.492 92.2974Z" fill="#A55000"/>
<path d="M179.508 88.624L184.235 138.828L180.386 149.405L175.658 99.2011L179.508 88.624Z" fill="#A55000"/>
<path d="M226.262 136.491L225.833 127.785L221.983 138.362L222.412 147.068L226.262 136.491Z" fill="#A55000"/>
<path d="M201.586 128.978L198.271 117.312L194.421 127.89L197.736 139.555L201.586 128.978Z" fill="#A55000"/>
<path d="M225.833 127.785L201.586 128.978L197.736 139.555L221.984 138.362L225.833 127.785Z" fill="#A55000"/>
<path d="M242.595 135.687L226.262 136.491L222.412 147.068L238.745 146.264L242.595 135.687Z" fill="#A55000"/>
<path d="M91.9611 98.2758C100.877 97.0137 106.753 98.4373 110.743 101.438L106.893 112.015C102.904 109.014 97.0271 107.591 88.1113 108.853L91.9611 98.2758Z" fill="#A55000"/>
<path d="M110.742 101.438C114.244 104.07 116.256 107.496 116.983 112.631L113.134 123.209C112.407 118.073 110.394 114.647 106.893 112.015L110.742 101.438Z" fill="#A55000"/>
<path d="M165.181 115.515L155.316 134.46L151.466 145.037L161.331 126.092L165.181 115.515Z" fill="#A55000"/>
<path d="M167.524 140.402L165.181 115.515L161.331 126.092L163.674 150.979L167.524 140.402Z" fill="#A55000"/>
<path d="M116.984 112.632L117.004 112.774L113.154 123.352L113.134 123.209L116.984 112.632Z" fill="#A55000"/>
<path d="M67.5665 101.729L91.9602 98.2754L88.1105 108.852L63.7168 112.306L67.5665 101.729Z" fill="#A55000"/>
<path d="M155.029 134.487L141.801 117.716L137.951 128.293L151.18 145.064L155.029 134.487Z" fill="#A55000"/>
<path d="M127.72 144.15L122.992 93.9453L119.143 104.522L123.87 154.727L127.72 144.15Z" fill="#A55000"/>
<path d="M117.004 112.774C117.438 115.842 117.155 118.593 116.267 121.032L112.419 131.602C113.306 129.165 113.588 126.416 113.154 123.351L117.004 112.774Z" fill="#A55000"/>
<path d="M184.235 138.828L167.525 140.402L163.675 150.979L180.386 149.405L184.235 138.828Z" fill="#A55000"/>
<path d="M155.315 134.46L155.028 134.487L151.179 145.065L151.466 145.038L155.315 134.46Z" fill="#A55000"/>
<path d="M141.801 117.716L144.144 142.603L140.295 153.18L137.951 128.293L141.801 117.716Z" fill="#A55000"/>
<path d="M100.536 116.196C100.082 112.987 97.4348 111.761 93.5118 112.316L89.6621 122.893C93.5851 122.338 96.2323 123.564 96.6867 126.773L100.536 116.196Z" fill="#A55000"/>
<path d="M100.556 116.339L100.536 116.196L96.6865 126.773L96.7067 126.916L100.556 116.339Z" fill="#A55000"/>
<path d="M93.5118 112.316L86.2365 113.346L82.3867 123.923L89.662 122.893L93.5118 112.316Z" fill="#A55000"/>
<path d="M100.355 118.603C100.601 117.925 100.674 117.167 100.557 116.339L96.707 126.916C96.8241 127.744 96.7516 128.502 96.5049 129.18L100.355 118.603Z" fill="#A55000"/>
<path d="M116.267 121.032C115.028 124.433 112.611 127.228 109.321 129.431L105.472 140.008C108.762 137.805 111.178 135.01 112.417 131.609L116.267 121.032Z" fill="#A55000"/>
<path d="M94.8234 122.098C97.7398 121.685 99.6851 120.44 100.354 118.604L96.5043 129.18C95.8362 131.017 93.8907 132.262 90.9736 132.675L94.8234 122.098Z" fill="#A55000"/>
<path d="M86.2365 113.346L87.6197 123.118L83.77 133.695L82.3867 123.923L86.2365 113.346Z" fill="#A55000"/>
<path d="M87.6193 123.118L94.8232 122.098L90.9735 132.675L83.7695 133.695L87.6193 123.118Z" fill="#A55000"/>
<path d="M144.144 142.603L127.72 144.15L123.87 154.727L140.294 153.18L144.144 142.603Z" fill="#A55000"/>
<path d="M109.321 129.432L123.351 144.762L119.501 155.339L105.472 140.009L109.321 129.432Z" fill="#A55000"/>
<path d="M74.6344 151.657L67.5665 101.729L63.7168 112.306L70.7847 162.234L74.6344 151.657Z" fill="#A55000"/>
<path d="M92.8721 134.524L89.3058 135.029L85.4561 145.606L89.0224 145.101L92.8721 134.524Z" fill="#A55000"/>
<path d="M123.351 144.761L104.307 147.457L100.457 158.034L119.501 155.338L123.351 144.761Z" fill="#A55000"/>
<path d="M104.307 147.457L92.8722 134.524L89.0225 145.101L100.457 158.034L104.307 147.457Z" fill="#A55000"/>
<path d="M89.3058 135.03L91.3252 149.295L87.4755 159.872L85.4561 145.607L89.3058 135.03Z" fill="#A55000"/>
<path d="M91.3253 149.294L74.6349 151.657L70.7852 162.234L87.4756 159.871L91.3253 149.294Z" fill="#A55000"/>
<path d="M74.5243 150.879L91.2147 148.516L89.1953 134.251L92.7616 133.746L104.196 146.679L123.24 143.983L109.211 128.653C114.86 124.87 117.933 119.342 116.893 111.995L116.873 111.853C116.146 106.717 114.133 103.292 110.632 100.659C106.642 97.6586 100.766 96.235 91.8501 97.4971L67.4564 100.95L74.5243 150.879ZM87.5091 122.339L86.1258 112.568L93.4011 111.538C97.3241 110.982 99.9713 112.208 100.426 115.418L100.446 115.561C100.88 118.628 98.7074 120.754 94.7131 121.32L87.5091 122.339Z" fill="white"/>
<path d="M74.5243 150.879L73.4098 151.037L73.5676 152.151L74.6821 151.993L74.5243 150.879ZM91.2147 148.516L91.3725 149.631L92.4869 149.473L92.3292 148.358L91.2147 148.516ZM89.1953 134.251L89.0375 133.136L87.923 133.294L88.0808 134.409L89.1953 134.251ZM92.7616 133.746L93.6049 133L93.2036 132.547L92.6038 132.632L92.7616 133.746ZM104.196 146.679L103.353 147.424L103.754 147.878L104.354 147.793L104.196 146.679ZM123.24 143.983L123.398 145.097L125.512 144.798L124.071 143.223L123.24 143.983ZM109.211 128.653L108.585 127.717L107.496 128.446L108.381 129.413L109.211 128.653ZM110.632 100.659L109.956 101.558L110.632 100.659ZM67.4564 100.95L67.2986 99.8358L66.1842 99.9936L66.3419 101.108L67.4564 100.95ZM87.5091 122.339L86.3946 122.497L86.5524 123.612L87.6669 123.454L87.5091 122.339ZM86.1258 112.568L85.968 111.453L84.8536 111.611L85.0113 112.725L86.1258 112.568ZM74.6821 151.993L91.3725 149.631L91.0569 147.402L74.3665 149.764L74.6821 151.993ZM92.3292 148.358L90.3098 134.093L88.0808 134.409L90.1002 148.674L92.3292 148.358ZM89.3531 135.365L92.9194 134.86L92.6038 132.632L89.0375 133.136L89.3531 135.365ZM91.9184 134.492L103.353 147.424L105.039 145.933L93.6049 133L91.9184 134.492ZM104.354 147.793L123.398 145.097L123.083 142.868L104.038 145.564L104.354 147.793ZM124.071 143.223L110.041 127.893L108.381 129.413L122.41 144.743L124.071 143.223ZM109.837 129.588C115.798 125.597 119.116 119.666 118.008 111.838L115.779 112.153C116.751 119.018 113.922 124.144 108.585 127.717L109.837 129.588ZM118.008 111.838L117.988 111.695L115.759 112.011L115.779 112.153L118.008 111.838ZM117.988 111.695C117.223 106.296 115.073 102.59 111.309 99.7592L109.956 101.558C113.194 103.993 115.069 107.139 115.759 112.011L117.988 111.695ZM111.309 99.7592C106.999 96.5185 100.785 95.0955 91.6923 96.3827L92.0078 98.6116C100.747 97.3745 106.286 98.7987 109.956 101.558L111.309 99.7592ZM91.6923 96.3827L67.2986 99.8358L67.6142 102.065L92.0078 98.6116L91.6923 96.3827ZM66.3419 101.108L73.4098 151.037L75.6388 150.721L68.5709 100.793L66.3419 101.108ZM88.6236 122.182L87.2403 112.41L85.0113 112.725L86.3946 122.497L88.6236 122.182ZM86.2836 113.682L93.5589 112.652L93.2433 110.423L85.968 111.453L86.2836 113.682ZM93.5589 112.652C95.3977 112.392 96.7709 112.577 97.6886 113.061C98.545 113.513 99.1291 114.289 99.3112 115.576L101.54 115.26C101.268 113.337 100.301 111.895 98.7396 111.071C97.2394 110.279 95.3275 110.128 93.2433 110.423L93.5589 112.652ZM99.3112 115.576L99.3314 115.718L101.56 115.403L101.54 115.26L99.3112 115.576ZM99.3314 115.718C99.5018 116.923 99.1676 117.861 98.4452 118.581C97.6865 119.338 96.4056 119.943 94.5553 120.205L94.8708 122.434C97.0148 122.131 98.8174 121.39 100.035 120.175C101.289 118.924 101.824 117.266 101.56 115.403L99.3314 115.718ZM94.5553 120.205L87.3513 121.225L87.6669 123.454L94.8708 122.434L94.5553 120.205Z" fill="#48290B"/>
<path d="M127.646 143.366L144.07 141.82L141.727 116.933L154.955 133.704L155.242 133.677L165.107 114.731L167.451 139.618L184.162 138.045L179.434 87.8405L161.935 89.4883L152.838 108.145L140.418 91.5143L122.919 93.1622L127.646 143.366Z" fill="white"/>
<path d="M127.646 143.366L126.525 143.472L126.631 144.593L127.752 144.487L127.646 143.366ZM144.07 141.82L144.176 142.941L145.296 142.835L145.191 141.714L144.07 141.82ZM141.727 116.933L142.61 116.236L140.248 113.241L140.606 117.038L141.727 116.933ZM154.955 133.704L154.071 134.401L154.451 134.882L155.061 134.825L154.955 133.704ZM155.242 133.677L155.348 134.798L155.957 134.74L156.24 134.197L155.242 133.677ZM165.107 114.731L166.228 114.626L165.87 110.829L164.109 114.211L165.107 114.731ZM167.451 139.618L166.33 139.724L166.436 140.844L167.556 140.739L167.451 139.618ZM184.162 138.045L184.267 139.165L185.388 139.06L185.282 137.939L184.162 138.045ZM179.434 87.8405L180.555 87.735L180.449 86.6143L179.329 86.7199L179.434 87.8405ZM161.935 89.4883L161.829 88.3677L161.2 88.4269L160.923 88.995L161.935 89.4883ZM152.838 108.145L151.936 108.818L153.04 110.297L153.85 108.638L152.838 108.145ZM140.418 91.5143L141.32 90.8408L140.942 90.3345L140.313 90.3937L140.418 91.5143ZM122.919 93.1622L122.813 92.0415L121.693 92.1471L121.798 93.2677L122.919 93.1622ZM127.752 144.487L144.176 142.941L143.964 140.699L127.541 142.246L127.752 144.487ZM145.191 141.714L142.847 116.827L140.606 117.038L142.949 141.925L145.191 141.714ZM140.843 117.63L154.071 134.401L155.839 133.007L142.61 116.236L140.843 117.63ZM155.061 134.825L155.348 134.798L155.136 132.556L154.85 132.583L155.061 134.825ZM156.24 134.197L166.106 115.251L164.109 114.211L154.244 133.157L156.24 134.197ZM163.987 114.837L166.33 139.724L168.571 139.513L166.228 114.626L163.987 114.837ZM167.556 140.739L184.267 139.165L184.056 136.924L167.345 138.498L167.556 140.739ZM185.282 137.939L180.555 87.735L178.314 87.946L183.041 138.15L185.282 137.939ZM179.329 86.7199L161.829 88.3677L162.04 90.609L179.54 88.9611L179.329 86.7199ZM160.923 88.995L151.826 107.651L153.85 108.638L162.946 89.9816L160.923 88.995ZM153.74 107.471L141.32 90.8408L139.517 92.1878L151.936 108.818L153.74 107.471ZM140.313 90.3937L122.813 92.0415L123.024 94.2828L140.524 92.635L140.313 90.3937ZM121.798 93.2677L126.525 143.472L128.767 143.261L124.039 93.0566L121.798 93.2677Z" fill="#48290B"/>
<path d="M226.223 135.705L242.556 134.901L242.128 126.195L248.171 125.898L247.587 114.026L241.543 114.324L240.059 84.1763L221.352 85.0971L198.233 116.527L201.547 128.193L225.795 126.999L226.223 135.705ZM214.5 115.871L224.562 101.961L225.221 115.343L214.5 115.871Z" fill="white"/>
<path d="M226.223 135.705L225.099 135.761L225.154 136.885L226.279 136.83L226.223 135.705ZM242.556 134.901L242.611 136.026L243.736 135.97L243.68 134.846L242.556 134.901ZM242.128 126.195L242.072 125.071L240.948 125.127L241.003 126.251L242.128 126.195ZM248.171 125.898L248.227 127.022L249.351 126.967L249.296 125.843L248.171 125.898ZM247.587 114.026L248.711 113.971L248.656 112.847L247.532 112.902L247.587 114.026ZM241.543 114.324L240.419 114.379L240.474 115.503L241.599 115.448L241.543 114.324ZM240.059 84.1763L241.184 84.121L241.128 82.9968L240.004 83.0521L240.059 84.1763ZM221.352 85.0971L221.297 83.9728L220.763 83.9991L220.446 84.4301L221.352 85.0971ZM198.233 116.527L197.326 115.86L196.999 116.305L197.15 116.835L198.233 116.527ZM201.547 128.193L200.465 128.5L200.709 129.361L201.603 129.317L201.547 128.193ZM225.795 126.999L226.919 126.944L226.864 125.82L225.739 125.875L225.795 126.999ZM214.5 115.871L213.588 115.211L212.215 117.11L214.556 116.995L214.5 115.871ZM224.562 101.961L225.687 101.905L225.529 98.7036L223.65 101.301L224.562 101.961ZM225.221 115.343L225.276 116.468L226.401 116.412L226.345 115.288L225.221 115.343ZM226.279 136.83L242.611 136.026L242.501 133.777L226.168 134.581L226.279 136.83ZM243.68 134.846L243.252 126.14L241.003 126.251L241.432 134.957L243.68 134.846ZM242.183 127.32L248.227 127.022L248.116 124.774L242.072 125.071L242.183 127.32ZM249.296 125.843L248.711 113.971L246.463 114.081L247.047 125.953L249.296 125.843ZM247.532 112.902L241.488 113.199L241.599 115.448L247.642 115.15L247.532 112.902ZM242.667 114.268L241.184 84.121L238.935 84.2317L240.419 114.379L242.667 114.268ZM240.004 83.0521L221.297 83.9728L221.408 86.2213L240.115 85.3006L240.004 83.0521ZM220.446 84.4301L197.326 115.86L199.139 117.194L222.259 85.764L220.446 84.4301ZM197.15 116.835L200.465 128.5L202.63 127.885L199.315 116.22L197.15 116.835ZM201.603 129.317L225.85 128.124L225.739 125.875L201.492 127.068L201.603 129.317ZM224.671 127.055L225.099 135.761L227.348 135.65L226.919 126.944L224.671 127.055ZM215.412 116.531L225.474 102.62L223.65 101.301L213.588 115.211L215.412 116.531ZM223.438 102.016L224.097 115.399L226.345 115.288L225.687 101.905L223.438 102.016ZM225.166 114.219L214.445 114.747L214.556 116.995L225.276 116.468L225.166 114.219Z" fill="#48290B"/>
<path d="M273.822 135.454C289.093 135.237 297.992 122.719 297.795 108.817L297.793 108.673C297.595 94.7711 288.489 82.653 273.218 82.8702C257.948 83.0874 249.048 95.6058 249.246 109.508L249.248 109.652C249.446 123.554 258.552 135.672 273.822 135.454ZM273.758 120.83C269.148 120.896 266.056 116.185 265.957 109.27L265.955 109.126C265.857 102.211 268.672 97.56 273.282 97.4944C277.892 97.4288 280.985 102.14 281.084 109.055L281.086 109.199C281.184 116.114 278.368 120.765 273.758 120.83Z" fill="white"/>
<path d="M273.838 136.58C289.879 136.352 299.124 123.164 298.92 108.801L296.669 108.833C296.86 122.273 288.306 134.123 273.806 134.329L273.838 136.58ZM298.92 108.801L298.918 108.657L296.667 108.689L296.669 108.833L298.92 108.801ZM298.918 108.657C298.714 94.2948 289.244 81.5165 273.202 81.7447L273.234 83.9957C287.733 83.7894 296.476 95.2473 296.667 108.689L298.918 108.657ZM273.202 81.7447C257.162 81.9729 247.916 95.1602 248.121 109.524L250.372 109.492C250.18 96.0514 258.734 84.202 273.234 83.9957L273.202 81.7447ZM248.121 109.524L248.123 109.668L250.374 109.636L250.372 109.492L248.121 109.524ZM248.123 109.668C248.327 124.03 257.796 136.808 273.838 136.58L273.806 134.329C259.307 134.535 250.565 123.077 250.374 109.636L248.123 109.668ZM273.742 119.705C271.882 119.731 270.289 118.815 269.101 117.042C267.895 115.239 267.13 112.564 267.083 109.254L264.832 109.286C264.883 112.89 265.714 116.028 267.231 118.294C268.767 120.588 271.025 121.995 273.774 121.956L273.742 119.705ZM267.083 109.254L267.081 109.11L264.83 109.142L264.832 109.286L267.083 109.254ZM267.081 109.11C267.033 105.789 267.69 103.132 268.808 101.337C269.904 99.5788 271.429 98.6465 273.298 98.6199L273.266 96.3689C270.525 96.4079 268.338 97.8339 266.898 100.146C265.48 102.422 264.779 105.547 264.83 109.142L267.081 109.11ZM273.298 98.6199C275.159 98.5934 276.752 99.5092 277.939 101.283C279.146 103.085 279.911 105.76 279.958 109.071L282.209 109.039C282.158 105.434 281.327 102.296 279.81 100.031C278.274 97.7367 276.016 96.3298 273.266 96.3689L273.298 98.6199ZM279.958 109.071L279.96 109.215L282.211 109.183L282.209 109.039L279.958 109.071ZM279.96 109.215C280.007 112.535 279.35 115.193 278.232 116.988C277.137 118.746 275.611 119.678 273.742 119.705L273.774 121.956C276.515 121.917 278.702 120.491 280.143 118.178C281.561 115.903 282.262 112.777 282.211 109.183L279.96 109.215Z" fill="#48290B"/>
<path d="M321.89 135.78C337.159 136.096 346.491 123.897 346.779 109.996L346.782 109.852C347.07 95.9522 338.393 83.5233 323.124 83.2067C307.856 82.8902 298.524 95.0899 298.236 108.99L298.233 109.134C297.945 123.034 306.622 135.463 321.89 135.78ZM322.338 121.162C317.728 121.067 314.802 116.251 314.945 109.337L314.948 109.192C315.091 102.278 318.068 97.7287 322.677 97.8242C327.287 97.9198 330.213 102.736 330.07 109.65L330.067 109.794C329.923 116.708 326.947 121.258 322.338 121.162Z" fill="white"/>
<path d="M321.867 136.905C337.906 137.238 347.607 124.382 347.904 110.02L345.654 109.973C345.375 123.412 336.412 134.955 321.914 134.655L321.867 136.905ZM347.904 110.02L347.907 109.876L345.657 109.829L345.654 109.973L347.904 110.02ZM347.907 109.876C348.205 95.5153 339.188 82.4139 323.148 82.0814L323.101 84.3321C337.598 84.6326 345.935 96.3891 345.657 109.829L347.907 109.876ZM323.148 82.0814C307.109 81.7489 297.408 94.605 297.111 108.967L299.361 109.013C299.64 95.5747 308.603 84.0315 323.101 84.3321L323.148 82.0814ZM297.111 108.967L297.108 109.111L299.358 109.158L299.361 109.013L297.111 108.967ZM297.108 109.111C296.81 123.471 305.827 136.573 321.867 136.905L321.914 134.655C307.416 134.354 299.08 122.598 299.358 109.158L297.108 109.111ZM322.361 120.037C320.501 119.998 318.941 119.028 317.816 117.213C316.673 115.37 316.002 112.67 316.071 109.36L313.82 109.313C313.745 112.917 314.466 116.082 315.902 118.4C317.357 120.746 319.565 122.231 322.314 122.288L322.361 120.037ZM316.071 109.36L316.073 109.216L313.823 109.169L313.82 109.313L316.071 109.36ZM316.073 109.216C316.142 105.896 316.892 103.263 318.072 101.508C319.228 99.7892 320.785 98.9108 322.654 98.9496L322.701 96.6989C319.96 96.6421 317.724 97.9907 316.204 100.252C314.708 102.476 313.897 105.575 313.823 109.169L316.073 109.216ZM322.654 98.9496C324.514 98.9881 326.074 99.959 327.199 101.773C328.342 103.617 329.013 106.317 328.944 109.627L331.195 109.673C331.27 106.07 330.549 102.904 329.112 100.587C327.658 98.2408 325.45 96.7559 322.701 96.6989L322.654 98.9496ZM328.944 109.627L328.941 109.771L331.192 109.817L331.195 109.673L328.944 109.627ZM328.941 109.771C328.873 113.091 328.123 115.724 326.943 117.479C325.787 119.197 324.23 120.076 322.361 120.037L322.314 122.288C325.055 122.345 327.29 120.996 328.811 118.735C330.307 116.51 331.118 113.411 331.192 109.817L328.941 109.771Z" fill="#48290B"/>
<path d="M345.601 147.583C354.973 147.661 361.977 144.382 362.529 132.581L363.145 119.413L346.451 118.632L345.676 135.182L352.225 135.489C352.053 139.159 349.29 141.193 344.585 141.55L345.601 147.583Z" fill="white"/>
<path d="M345.601 147.583L344.491 147.77L344.648 148.701L345.592 148.708L345.601 147.583ZM363.145 119.413L364.269 119.465L364.322 118.341L363.198 118.288L363.145 119.413ZM346.451 118.632L346.503 117.507L345.379 117.455L345.326 118.579L346.451 118.632ZM345.676 135.182L344.552 135.13L344.5 136.254L345.624 136.307L345.676 135.182ZM352.225 135.489L353.349 135.541L353.402 134.417L352.277 134.364L352.225 135.489ZM344.585 141.55L344.5 140.427L343.271 140.521L343.475 141.737L344.585 141.55ZM345.592 148.708C350.378 148.748 354.772 147.939 358.056 145.431C361.387 142.887 363.367 138.758 363.653 132.634L361.405 132.529C361.139 138.205 359.341 141.617 356.689 143.642C353.989 145.704 350.196 146.495 345.611 146.457L345.592 148.708ZM363.653 132.634L364.269 119.465L362.021 119.36L361.405 132.529L363.653 132.634ZM363.198 118.288L346.503 117.507L346.398 119.756L363.092 120.537L363.198 118.288ZM345.326 118.579L344.552 135.13L346.801 135.235L347.575 118.684L345.326 118.579ZM345.624 136.307L352.172 136.613L352.277 134.364L345.729 134.058L345.624 136.307ZM351.1 135.436C351.029 136.966 350.437 138.077 349.413 138.873C348.351 139.7 346.727 140.258 344.5 140.427L344.671 142.672C347.148 142.484 349.258 141.847 350.796 140.65C352.374 139.422 353.249 137.681 353.349 135.541L351.1 135.436ZM343.475 141.737L344.491 147.77L346.711 147.396L345.695 141.363L343.475 141.737Z" fill="#48290B"/>
<path d="M393.341 139.374C408.572 140.484 418.526 128.786 419.536 114.92L419.547 114.776C420.557 100.909 412.538 88.0461 397.307 86.936C382.075 85.826 372.122 97.5239 371.111 111.39L371.101 111.534C370.09 125.401 378.109 138.264 393.341 139.374ZM394.547 124.799C389.949 124.464 387.277 119.503 387.78 112.605L387.79 112.461C388.293 105.564 391.502 101.175 396.1 101.511C400.698 101.846 403.37 106.807 402.868 113.705L402.857 113.848C402.354 120.746 399.145 125.135 394.547 124.799Z" fill="white"/>
<path d="M393.259 140.497C409.259 141.663 419.615 129.328 420.659 115.001L418.414 114.838C417.436 128.244 407.886 139.305 393.422 138.251L393.259 140.497ZM420.659 115.001L420.669 114.858L418.424 114.694L418.414 114.838L420.659 115.001ZM420.669 114.858C421.713 100.532 413.39 86.9796 397.389 85.8134L397.225 88.0587C411.687 89.1127 419.401 101.287 418.424 114.694L420.669 114.858ZM397.389 85.8134C381.389 84.6474 371.033 96.9817 369.989 111.309L372.234 111.472C373.211 98.0661 382.762 87.0046 397.225 88.0587L397.389 85.8134ZM369.989 111.309L369.978 111.452L372.223 111.616L372.234 111.472L369.989 111.309ZM369.978 111.452C368.934 125.778 377.258 139.33 393.259 140.497L393.422 138.251C378.96 137.197 371.246 125.023 372.223 111.616L369.978 111.452ZM394.629 123.677C392.774 123.542 391.266 122.491 390.237 120.621C389.191 118.72 388.662 115.989 388.902 112.687L386.657 112.523C386.395 116.119 386.95 119.317 388.264 121.706C389.595 124.124 391.723 125.722 394.465 125.922L394.629 123.677ZM388.902 112.687L388.913 112.543L386.668 112.38L386.657 112.523L388.902 112.687ZM388.913 112.543C389.154 109.231 390.04 106.641 391.309 104.95C392.553 103.294 394.154 102.497 396.018 102.633L396.182 100.388C393.448 100.189 391.145 101.419 389.509 103.598C387.899 105.742 386.929 108.794 386.668 112.38L388.913 112.543ZM396.018 102.633C397.874 102.768 399.381 103.819 400.411 105.689C401.456 107.59 401.986 110.321 401.745 113.623L403.99 113.787C404.252 110.191 403.697 106.993 402.383 104.604C401.052 102.186 398.925 100.588 396.182 100.388L396.018 102.633ZM401.745 113.623L401.735 113.767L403.98 113.93L403.99 113.787L401.745 113.623ZM401.735 113.767C401.493 117.079 400.608 119.669 399.338 121.36C398.094 123.016 396.493 123.813 394.629 123.677L394.465 125.922C397.199 126.121 399.502 124.891 401.138 122.712C402.748 120.568 403.718 117.516 403.98 113.93L401.735 113.767Z" fill="#48290B"/>
<path d="M441.198 143.874C456.382 145.515 466.738 134.172 468.233 120.35L468.248 120.206C469.743 106.384 462.178 93.248 446.995 91.6063C431.811 89.9647 421.455 101.308 419.961 115.13L419.945 115.274C418.45 129.096 426.015 142.232 441.198 143.874ZM442.914 129.35C438.33 128.855 435.833 123.802 436.576 116.927L436.592 116.784C437.335 109.908 440.696 105.634 445.279 106.13C449.863 106.625 452.36 111.678 451.617 118.553L451.601 118.696C450.858 125.572 447.497 129.846 442.914 129.35Z" fill="white"/>
<path d="M441.077 144.993C457.027 146.717 467.807 134.752 469.352 120.471L467.113 120.229C465.669 133.592 455.737 144.313 441.319 142.755L441.077 144.993ZM469.352 120.471L469.367 120.327L467.129 120.085L467.113 120.229L469.352 120.471ZM469.367 120.327C470.911 106.047 463.066 92.2119 447.116 90.4873L446.874 92.7254C461.29 94.2842 468.574 106.72 467.129 120.085L469.367 120.327ZM447.116 90.4873C431.166 88.7628 420.386 100.728 418.841 115.009L421.08 115.251C422.525 101.888 432.456 91.1665 446.874 92.7254L447.116 90.4873ZM418.841 115.009L418.826 115.153L421.064 115.395L421.08 115.251L418.841 115.009ZM418.826 115.153C417.282 129.433 425.127 143.268 441.077 144.993L441.319 142.755C426.903 141.196 419.619 128.76 421.064 115.395L418.826 115.153ZM443.035 128.231C441.185 128.031 439.715 126.928 438.752 125.023C437.773 123.088 437.34 120.34 437.695 117.048L435.457 116.806C435.07 120.39 435.513 123.606 436.743 126.039C437.988 128.503 440.059 130.174 442.793 130.469L443.035 128.231ZM437.695 117.048L437.711 116.905L435.473 116.663L435.457 116.806L437.695 117.048ZM437.711 116.905C438.068 113.603 439.043 111.045 440.371 109.399C441.672 107.788 443.3 107.048 445.158 107.249L445.4 105.011C442.675 104.716 440.331 105.865 438.62 107.986C436.936 110.072 435.859 113.089 435.473 116.663L437.711 116.905ZM445.158 107.249C447.008 107.449 448.478 108.552 449.441 110.457C450.42 112.392 450.854 115.14 450.498 118.432L452.736 118.674C453.123 115.09 452.68 111.874 451.45 109.441C450.205 106.977 448.135 105.306 445.4 105.011L445.158 107.249ZM450.498 118.432L450.482 118.575L452.72 118.817L452.736 118.674L450.498 118.432ZM450.482 118.575C450.125 121.877 449.15 124.435 447.822 126.08C446.521 127.692 444.893 128.432 443.035 128.231L442.793 130.469C445.518 130.764 447.862 129.615 449.573 127.494C451.257 125.408 452.334 122.391 452.72 118.817L450.482 118.575Z" fill="#48290B"/>
<path d="M488.87 150.043C503.986 152.214 514.733 141.24 516.709 127.478L516.73 127.335C518.706 113.573 511.606 100.181 496.489 98.0097C481.372 95.8385 470.626 106.813 468.649 120.575L468.629 120.717C466.652 134.479 473.753 147.871 488.87 150.043ZM491.091 135.588C486.528 134.932 484.209 129.796 485.192 122.951L485.213 122.808C486.196 115.963 489.703 111.809 494.267 112.464C498.831 113.12 501.15 118.256 500.166 125.102L500.146 125.244C499.163 132.09 495.655 136.243 491.091 135.588Z" fill="white"/>
<path d="M488.71 151.157C504.589 153.437 515.781 141.857 517.823 127.638L515.595 127.318C513.684 140.623 503.384 150.99 489.03 148.928L488.71 151.157ZM517.823 127.638L517.844 127.495L515.616 127.175L515.595 127.318L517.823 127.638ZM517.844 127.495C519.886 113.277 512.529 99.1766 496.649 96.8956L496.329 99.1239C510.682 101.185 517.527 113.869 515.616 127.175L517.844 127.495ZM496.649 96.8956C480.769 94.6148 469.577 106.196 467.535 120.415L469.763 120.735C471.674 107.43 481.974 97.0621 496.329 99.1239L496.649 96.8956ZM467.535 120.415L467.514 120.557L469.743 120.877L469.763 120.735L467.535 120.415ZM467.514 120.557C465.472 134.775 472.829 148.876 488.71 151.157L489.03 148.928C474.676 146.867 467.832 134.184 469.743 120.877L467.514 120.557ZM491.251 134.474C489.41 134.209 487.979 133.056 487.083 131.118C486.173 129.149 485.835 126.388 486.306 123.111L484.078 122.791C483.565 126.359 483.896 129.588 485.04 132.063C486.199 134.569 488.209 136.311 490.931 136.702L491.251 134.474ZM486.306 123.111L486.327 122.968L484.098 122.648L484.078 122.791L486.306 123.111ZM486.327 122.968C486.799 119.681 487.863 117.159 489.248 115.561C490.604 113.995 492.257 113.313 494.107 113.579L494.427 111.35C491.714 110.96 489.331 112.027 487.547 114.086C485.791 116.112 484.609 119.09 484.098 122.648L486.327 122.968ZM494.107 113.579C495.949 113.843 497.379 114.996 498.275 116.934C499.185 118.903 499.523 121.664 499.052 124.942L501.28 125.262C501.793 121.694 501.463 118.464 500.318 115.989C499.16 113.484 497.149 111.741 494.427 111.35L494.107 113.579ZM499.052 124.942L499.032 125.084L501.26 125.404L501.28 125.262L499.052 124.942ZM499.032 125.084C498.56 128.371 497.495 130.893 496.111 132.492C494.754 134.057 493.101 134.74 491.251 134.474L490.931 136.702C493.645 137.092 496.028 136.025 497.812 133.966C499.568 131.94 500.749 128.962 501.26 125.404L499.032 125.084Z" fill="#48290B"/>
<line x1="121.5" y1="191.5" x2="466.5" y2="191.5" stroke="white" stroke-width="3" stroke-linecap="round"/>
<defs>
<filter id="filter0_f_438_2545" x="0" y="0" width="587" height="235" filterUnits="userSpaceOnUse" color-interpolation-filters="sRGB">
<feFlood flood-opacity="0" result="BackgroundImageFix"/>
<feBlend mode="normal" in="SourceGraphic" in2="BackgroundImageFix" result="shape"/>
<feGaussianBlur stdDeviation="35" result="effect1_foregroundBlur_438_2545"/>
</filter>
</defs>
</svg>
