<?xml version="1.0" encoding="UTF-8"?>
<svg width="28px" height="28px" viewBox="0 0 28 28" version="1.1" xmlns="http://www.w3.org/2000/svg" xmlns:xlink="http://www.w3.org/1999/xlink">
    <!-- Generator: sketchtool 39.1 (31720) - http://www.bohemiancoding.com/sketch -->
    <title>2F8F60A9-C288-482F-B3C2-616326C7412E</title>
    <desc>Created with sketchtool.</desc>
    <defs></defs>
    <g id="Page-1" stroke="none" stroke-width="1" fill="none" fill-rule="evenodd">
        <g id="102_Home_Page_Scrolled_V02" transform="translate(-1171.000000, -21.000000)" fill="#171717">
            <g id="tool" transform="translate(1172.000000, 22.000000)">
                <g id="Group-3">
                    <g id="Group-10">
                        <path d="M13,0 C5.82001064,0 0,5.81994717 0,13 C0,20.1799894 5.82001064,26 13,26 C20.1799894,26 26,20.1799894 26,13 C26,5.81994717 20.1799894,0 13,0 L13,0 Z M13,24.98438 C6.38102641,24.98438 1.01562004,19.6189042 1.01562004,13 C1.01562004,6.38102641 6.38102641,1.01562004 13,1.01562004 C19.6189042,1.01562004 24.98438,6.38102641 24.98438,13 C24.98438,19.6189042 19.6189042,24.98438 13,24.98438 L13,24.98438 Z" id="Fill-1" stroke="#373737" stroke-width="0.25"></path>
                        <path d="M16.1540201,12.1641211 L16.1540201,9.78914137 C16.1540201,8.04313543 14.7333864,6.62250171 12.9873805,6.62250171 C11.2413745,6.62250171 9.82074083,8.04313543 9.82074083,9.78914137 L9.82074083,12.1641211 C9.16603808,12.1641211 8.63325096,12.6969082 8.63325096,13.351611 L8.63325096,18.1015705 C8.63325096,18.7562732 9.16603808,19.2890603 9.82074083,19.2890603 L16.1540201,19.2890603 C16.8087229,19.2890603 17.34151,18.7562732 17.34151,18.1015705 L17.34151,13.351611 C17.34151,12.6969082 16.8087229,12.1641211 16.1540201,12.1641211 L16.1540201,12.1641211 Z M10.6124007,9.78914137 C10.6124007,8.47934004 11.6775792,7.41416163 12.9873805,7.41416163 C14.2971818,7.41416163 15.3623602,8.47934004 15.3623602,9.78914137 L15.3623602,12.1641211 L10.6124007,12.1641211 L10.6124007,9.78914137 L10.6124007,9.78914137 Z M16.5498501,18.1015705 C16.5498501,18.3200686 16.3721224,18.4974004 16.1540201,18.4974004 L9.82074083,18.4974004 C9.60263853,18.4974004 9.42491088,18.3200686 9.42491088,18.1015705 L9.42491088,13.351611 C9.42491088,13.1331128 9.60263853,12.955781 9.82074083,12.955781 L16.1540201,12.955781 C16.3721224,12.955781 16.5498501,13.1331128 16.5498501,13.351611 L16.5498501,18.1015705 L16.5498501,18.1015705 Z M13.3832104,15.4404057 L13.3832104,14.5391008 C13.3832104,14.3202069 13.2058786,14.1432709 12.9873805,14.1432709 C12.7688824,14.1432709 12.5915505,14.3202069 12.5915505,14.5391008 L12.5915505,15.4404057 C12.3560317,15.5777587 12.1957206,15.8299023 12.1957206,16.1224207 C12.1957206,16.5594169 12.5503842,16.9140806 12.9873805,16.9140806 C13.4243768,16.9140806 13.7790404,16.5594169 13.7790404,16.1224207 C13.7790404,15.8302982 13.6191251,15.5777587 13.3832104,15.4404057 L13.3832104,15.4404057 Z" id="Shape" stroke="#171717" stroke-width="0.2"></path>
                    </g>
                </g>
            </g>
        </g>
    </g>
</svg>