<?xml version="1.0" encoding="UTF-8"?>
<svg width="32px" height="32px" viewBox="0 0 32 32" version="1.1" xmlns="http://www.w3.org/2000/svg" xmlns:xlink="http://www.w3.org/1999/xlink">
    <!-- Generator: Sketch 39.1 (31720) - http://www.bohemiancoding.com/sketch -->
    <title>Twitter</title>
    <desc>Created with Sketch.</desc>
    <defs></defs>
    <g id="Page-1" stroke="none" stroke-width="1" fill="none" fill-rule="evenodd">
        <g id="200_Home_Page-Copy" transform="translate(-1476.000000, -292.000000)">
            <g id="Twitter" transform="translate(1476.000000, 292.000000)">
                <ellipse id="Oval-1" fill="#55ACEE" cx="15.7843137" cy="16" rx="15.7843137" ry="16"></ellipse>
                <path d="M23.0144915,9.88028952 C22.568973,10.1695594 21.5460693,10.5899073 21.0416026,10.5899073 L21.0416026,10.5907708 C20.4655804,9.9808 19.6546174,9.6 18.7552322,9.6 C17.0084248,9.6 15.5919656,11.0358146 15.5919656,12.8058006 C15.5919656,13.0517232 15.6200767,13.2916013 15.6720397,13.5216356 L15.6715285,13.5216356 C13.3020174,13.4586006 10.7105137,12.25472 9.15043224,10.1942552 C8.19124706,11.8772013 9.0212915,13.7489067 10.1097878,14.4308927 C9.7371878,14.4593879 9.05127669,14.3873727 8.72842484,14.0680533 C8.7067878,15.1850667 9.23663965,16.6650921 11.1686397,17.2020114 C10.7965508,17.4049321 10.1378989,17.3467327 9.85150632,17.3035581 C9.95202484,18.2464914 11.2546767,19.4792127 12.6791434,19.4792127 C12.1714397,20.0745041 10.2612471,21.1542146 8.11764706,20.8107175 C9.57346187,21.7085765 11.2701804,22.2285714 13.0660545,22.2285714 C18.1694989,22.2285714 22.1328248,18.0359721 21.9195211,12.8638273 C21.9186693,12.8581283 21.9186693,12.8524292 21.9181582,12.8462121 C21.9186693,12.8329143 21.9195211,12.8196165 21.9195211,12.8058006 C21.9195211,12.7897397 21.9181582,12.7745422 21.9176471,12.7589994 C22.3822471,12.4369168 23.0056322,11.8671848 23.4509804,11.1173283 C23.1926989,11.2615314 22.4178545,11.5502832 21.6968471,11.621953 C22.159573,11.3687771 22.8451434,10.5396521 23.0144915,9.88028952" id="Fill-1" fill="#FFFFFF"></path>
            </g>
        </g>
    </g>
</svg>